<svg xmlns="http://www.w3.org/2000/svg" width="640" height="320" viewBox="0 0 640 320" font-family='-apple-system, Segoe UI, Helvetica, Arial, sans-serif' font-size="12"><rect width="640" height="320" fill="white"/><text x="60" y="24" font-size="15" font-weight="600" fill="#222">Put p99 latency, 64 clients</text><line x1="60" y1="270.0" x2="620" y2="270.0" stroke="#e5e5e5"/><text x="54" y="274.0" text-anchor="end" fill="#666">0.00</text><line x1="60" y1="215.0" x2="620" y2="215.0" stroke="#e5e5e5"/><text x="54" y="219.0" text-anchor="end" fill="#666">215</text><line x1="60" y1="160.0" x2="620" y2="160.0" stroke="#e5e5e5"/><text x="54" y="164.0" text-anchor="end" fill="#666">429</text><line x1="60" y1="105.0" x2="620" y2="105.0" stroke="#e5e5e5"/><text x="54" y="109.0" text-anchor="end" fill="#666">644</text><line x1="60" y1="50.0" x2="620" y2="50.0" stroke="#e5e5e5"/><text x="54" y="54.0" text-anchor="end" fill="#666">858</text><rect x="78.7" y="257.4" width="71.7" height="12.6" fill="#3b6ea5" rx="2"/><text x="114.5" y="253.4" text-anchor="middle" fill="#333" font-size="11">49.3</text><rect x="153.3" y="244.2" width="71.7" height="25.8" fill="#e0a458" rx="2"/><text x="189.2" y="240.2" text-anchor="middle" fill="#333" font-size="11">101</text><text x="153.3" y="288" text-anchor="middle" fill="#333">100 B</text><rect x="265.3" y="262.8" width="71.7" height="7.2" fill="#3b6ea5" rx="2"/><text x="301.2" y="258.8" text-anchor="middle" fill="#333" font-size="11">28.2</text><rect x="340.0" y="197.7" width="71.7" height="72.3" fill="#e0a458" rx="2"/><text x="375.8" y="193.7" text-anchor="middle" fill="#333" font-size="11">282</text><text x="340.0" y="288" text-anchor="middle" fill="#333">1 KB</text><rect x="452.0" y="226.1" width="71.7" height="43.9" fill="#3b6ea5" rx="2"/><text x="487.8" y="222.1" text-anchor="middle" fill="#333" font-size="11">171</text><rect x="526.7" y="50.0" width="71.7" height="220.0" fill="#e0a458" rx="2"/><text x="562.5" y="46.0" text-anchor="middle" fill="#333" font-size="11">858</text><text x="526.7" y="288" text-anchor="middle" fill="#333">10 KB</text><text x="60" y="312" fill="#666">ms</text><rect x="510" y="20" width="10" height="10" fill="#3b6ea5"/><text x="524" y="29" fill="#333">3 nodes</text><rect x="510" y="36" width="10" height="10" fill="#e0a458"/><text x="524" y="45" fill="#333">5 nodes</text></svg>